<?xml version="1.0" standalone="no"?>
<!DOCTYPE svg PUBLIC "-//W3C//DTD SVG 20010904//EN"
 "http://www.w3.org/TR/2001/REC-SVG-20010904/DTD/svg10.dtd">
<svg version="1.0" xmlns="http://www.w3.org/2000/svg"
 width="1280.000000pt" height="822.000000pt" viewBox="0 0 1280.000000 822.000000"
 preserveAspectRatio="xMidYMid meet">
<metadata>
Created by potrace 1.15, written by Peter Selinger 2001-2017
</metadata>
<g transform="translate(0.000000,822.000000) scale(0.100000,-0.100000)"
fill="#000000" stroke="none">
<path d="M6932 8198 c9 -6 3 -8 -15 -4 -22 5 -34 1 -59 -24 -26 -27 -29 -35
-23 -68 8 -44 67 -157 83 -157 5 0 14 -4 19 -9 5 -5 2 -6 -6 -1 -9 5 -12 3 -9
-6 3 -8 10 -14 15 -14 6 0 15 -4 20 -9 5 -5 3 -6 -4 -2 -20 11 -15 -6 13 -47
14 -21 29 -35 34 -32 5 3 12 0 16 -6 5 -8 3 -9 -6 -4 -8 5 -11 3 -8 -6 3 -8
10 -14 16 -14 6 0 17 -7 24 -15 11 -12 11 -12 -4 -1 -10 7 -18 9 -18 3 0 -13
25 -33 32 -26 3 3 16 -10 28 -28 l22 -33 -26 30 c-31 36 -34 25 -5 -16 11 -16
24 -27 29 -24 5 3 12 0 16 -6 5 -8 3 -9 -6 -4 -8 5 -11 3 -8 -6 3 -8 10 -14
16 -14 6 0 17 -7 24 -15 11 -12 11 -12 -4 -1 -10 7 -18 9 -18 3 0 -13 25 -33
32 -26 3 3 16 -10 28 -28 l22 -33 -26 30 c-31 36 -34 25 -5 -16 11 -16 24 -27
29 -24 5 3 12 0 16 -6 5 -8 3 -9 -6 -4 -10 6 -11 4 -5 -11 18 -44 16 -182 -5
-334 -12 -86 -19 -173 -15 -195 7 -48 29 -35 -300 -180 -315 -139 -534 -243
-795 -376 -284 -146 -572 -308 -565 -319 3 -5 0 -12 -6 -16 -8 -4 -9 -3 -5 4
11 18 -3 15 -40 -9 -19 -11 -32 -25 -29 -29 3 -5 0 -12 -6 -16 -8 -4 -9 -3 -5
4 13 21 -6 13 -81 -34 -40 -25 -71 -49 -68 -54 3 -5 0 -12 -6 -16 -8 -5 -9 -3
-4 6 5 8 3 11 -6 8 -8 -3 -14 -10 -14 -16 0 -5 -4 -14 -9 -19 -5 -5 -6 -2 -1
6 5 9 3 12 -6 9 -8 -3 -14 -10 -14 -16 0 -5 -4 -14 -9 -19 -5 -5 -6 -2 -1 6 5
9 3 12 -6 9 -8 -3 -14 -10 -14 -16 0 -5 -4 -14 -9 -19 -5 -5 -6 -2 -1 6 5 9 3
12 -6 9 -8 -3 -14 -10 -14 -16 0 -5 -4 -14 -9 -19 -5 -5 -6 -2 -1 6 5 9 3 12
-6 9 -8 -3 -14 -10 -14 -16 0 -5 -4 -14 -9 -19 -5 -5 -6 -2 -1 6 5 9 3 12 -6
9 -8 -3 -13 -10 -12 -16 2 -6 -12 -21 -30 -32 l-32 -22 30 26 c17 14 26 26 22
26 -16 0 -67 -41 -62 -50 3 -4 -3 -14 -13 -21 -15 -13 -16 -12 -3 4 7 9 9 17
3 17 -11 0 -30 -21 -30 -33 0 -5 -4 -12 -8 -15 -4 -4 -4 -1 0 6 10 18 -2 15
-35 -9 -16 -11 -27 -24 -24 -29 3 -4 -3 -14 -13 -21 -15 -13 -16 -12 -3 4 7 9
9 17 4 17 -13 0 -45 -35 -38 -42 3 -3 -3 -11 -12 -19 -16 -13 -17 -12 -4 4 7
9 9 17 4 17 -13 0 -45 -35 -38 -42 3 -3 -3 -11 -12 -19 -16 -13 -17 -12 -4 4
7 9 9 17 4 17 -13 0 -45 -35 -38 -42 3 -3 -3 -11 -12 -19 -16 -13 -17 -12 -4
4 24 30 -4 18 -35 -15 -16 -18 -20 -26 -9 -18 11 8 7 0 -9 -18 -17 -18 -32
-32 -34 -32 -3 0 3 9 13 20 10 11 14 20 8 20 -15 0 -44 -36 -36 -44 5 -4 1 -6
-7 -4 -8 2 -14 -2 -13 -8 1 -6 -15 -26 -35 -45 l-37 -34 29 33 c17 17 25 32
20 32 -17 0 -165 -156 -157 -165 4 -4 3 -5 -3 -2 -7 4 -46 -30 -93 -82 -78
-86 -105 -124 -58 -85 20 17 20 16 -2 -9 -26 -29 -37 -35 -25 -14 4 6 -5 1
-19 -12 -33 -30 -36 -52 -4 -25 20 17 20 16 -2 -9 -26 -29 -37 -35 -25 -14 4
6 -2 3 -14 -7 -26 -23 -30 -45 -4 -25 15 13 16 12 3 -4 -8 -9 -16 -15 -19 -12
-7 7 -32 -15 -32 -27 0 -6 8 -4 18 3 15 13 16 12 3 -4 -8 -9 -16 -15 -19 -12
-7 7 -32 -15 -32 -27 0 -6 8 -4 18 3 15 13 16 12 3 -4 -8 -9 -16 -15 -19 -12
-7 6 -32 -15 -32 -27 0 -5 6 -6 13 -2 7 4 9 3 4 -2 -5 -5 -14 -9 -19 -9 -6 0
-13 -6 -16 -14 -3 -9 0 -11 8 -6 9 5 11 4 6 -4 -4 -6 -11 -9 -16 -6 -5 3 -32
-28 -60 -70 -58 -85 -71 -113 -49 -100 8 5 11 5 6 -1 -5 -5 -14 -9 -19 -9 -6
0 -13 -6 -16 -14 -3 -9 0 -11 8 -6 9 5 11 4 6 -4 -4 -6 -11 -9 -16 -6 -4 3
-20 -15 -34 -39 -29 -49 -32 -61 -14 -50 7 4 8 3 4 -5 -4 -6 -11 -9 -16 -6 -4
3 -24 -24 -44 -59 -38 -68 -43 -81 -24 -70 7 4 8 3 4 -5 -4 -6 -11 -9 -16 -6
-4 3 -77 -122 -161 -278 -84 -155 -186 -339 -226 -410 -40 -70 -73 -130 -73
-133 0 -3 5 -2 12 2 7 4 8 3 4 -5 -4 -6 -11 -9 -16 -6 -4 3 -20 -15 -34 -39
-29 -49 -32 -61 -14 -50 7 4 8 3 4 -5 -4 -6 -11 -9 -16 -6 -4 3 -22 -17 -39
-43 -33 -51 -38 -68 -19 -56 7 4 8 3 4 -5 -4 -6 -11 -9 -15 -6 -9 5 -65 -74
-58 -81 3 -3 15 11 27 30 20 33 41 53 24 24 -23 -40 -46 -67 -56 -65 -6 1 -13
-4 -16 -12 -3 -9 0 -11 8 -6 9 5 11 4 6 -4 -4 -6 -11 -9 -16 -6 -5 3 -18 -8
-29 -24 -26 -36 -27 -48 -3 -30 15 13 16 12 4 -3 -8 -10 -19 -16 -24 -15 -6 1
-13 -4 -16 -12 -3 -9 0 -11 8 -6 9 5 11 4 6 -4 -4 -6 -11 -9 -15 -7 -8 5 -51
-47 -51 -61 0 -4 12 6 26 22 l26 30 -22 -33 c-12 -18 -25 -31 -28 -28 -7 7
-32 -13 -32 -26 0 -6 8 -4 18 3 15 13 16 12 3 -4 -8 -9 -16 -15 -19 -12 -7 7
-32 -15 -32 -27 0 -6 8 -4 18 3 15 13 16 12 3 -4 -8 -9 -16 -15 -19 -12 -7 7
-32 -15 -32 -27 0 -6 8 -4 18 3 15 13 16 12 3 -4 -8 -9 -16 -15 -19 -12 -7 7
-42 -25 -42 -38 0 -6 10 -2 23 9 l22 19 -19 -23 c-11 -12 -21 -20 -24 -17 -7
7 -32 -15 -32 -27 0 -6 8 -4 18 3 14 11 13 10 -2 -9 -21 -24 -31 -29 -20 -9 4
6 -2 3 -14 -7 -26 -23 -30 -44 -4 -25 14 11 13 10 -2 -9 -21 -24 -31 -29 -20
-10 4 7 -2 4 -14 -6 -26 -23 -30 -44 -4 -25 14 11 13 9 -2 -9 -11 -12 -22 -20
-24 -17 -7 7 -52 -35 -52 -48 0 -6 10 -2 23 9 12 10 9 4 -7 -14 -32 -34 -47
-43 -25 -14 7 9 -1 4 -19 -12 -33 -31 -45 -59 -14 -35 14 11 14 10 -2 -8 -10
-13 -22 -21 -26 -18 -9 6 -266 -275 -262 -286 1 -5 -4 -8 -10 -7 -7 2 -12 -3
-10 -10 1 -8 -1 -11 -6 -8 -10 6 -141 -123 -142 -139 0 -5 -4 -10 -9 -10 -15
0 -202 -176 -196 -185 3 -4 -3 -14 -13 -21 -15 -13 -16 -12 -3 4 19 24 7 21
-38 -9 -86 -57 -244 -80 -433 -63 -155 13 -264 32 -613 107 -453 98 -550 108
-727 72 -224 -46 -223 -67 7 -147 55 -19 142 -57 194 -84 103 -54 105 -55 95
-36 -4 7 -3 9 2 4 5 -5 9 -14 9 -19 0 -6 6 -13 14 -16 9 -3 11 0 6 9 -5 8 -4
11 1 6 5 -5 9 -14 9 -20 0 -5 6 -12 14 -15 9 -3 11 0 6 8 -6 9 -4 11 4 6 7 -5
10 -11 7 -14 -8 -7 24 -42 37 -42 6 0 2 10 -9 23 -17 20 -17 20 8 -2 15 -13
25 -27 23 -31 -6 -9 60 -72 68 -64 3 3 15 -9 26 -27 22 -36 27 -84 12 -108 -6
-10 -8 -1 -4 25 3 28 0 51 -12 73 -9 18 -18 31 -21 29 -2 -3 3 -20 13 -38 14
-28 14 -40 5 -77 -7 -24 -12 -58 -12 -76 0 -34 23 -77 42 -77 6 0 3 10 -8 23
l-19 22 22 -19 c13 -10 20 -22 17 -27 -2 -4 19 -23 48 -42 29 -19 61 -44 72
-55 10 -12 22 -19 27 -17 4 3 11 0 15 -6 5 -8 3 -9 -6 -4 -10 6 -11 4 -5 -11
24 -56 29 -117 17 -227 -11 -104 -24 -167 -120 -562 -29 -120 -36 -170 -36
-252 -1 -88 2 -105 20 -130 31 -42 82 -42 159 0 33 17 60 37 60 44 0 6 4 15 9
20 5 5 6 2 1 -6 -5 -9 -3 -12 6 -9 8 3 14 10 14 16 0 6 7 17 15 24 12 11 12
11 1 -4 -7 -10 -9 -18 -3 -18 12 0 34 25 27 32 -3 3 5 13 17 24 l23 19 -19
-22 c-27 -32 -5 -29 25 4 13 14 17 22 9 18 -10 -5 -8 -1 4 13 21 25 36 31 16
7 -7 -8 -8 -15 -3 -15 13 0 45 35 38 41 -3 3 12 21 33 40 l37 34 -29 -33 c-17
-17 -24 -32 -18 -32 15 0 452 438 452 453 0 6 -19 -7 -42 -28 l-43 -40 44 47
c25 26 47 45 50 43 6 -7 61 46 61 58 0 6 -9 2 -20 -8 -11 -10 -20 -16 -20 -13
0 2 14 17 32 34 18 16 26 20 18 9 -8 -11 0 -7 18 9 18 17 32 34 32 39 0 6 -9
2 -20 -8 -11 -10 -20 -16 -20 -13 0 2 14 17 32 34 18 16 26 20 18 9 -11 -15
-8 -14 13 4 30 27 38 52 10 30 -15 -11 -14 -10 1 9 21 24 31 29 20 9 -4 -6 2
-3 14 7 26 23 30 44 5 25 -15 -11 -14 -10 1 9 20 23 32 30 21 12 -3 -5 -4 -10
-1 -10 6 0 96 116 96 125 0 3 -5 3 -12 -1 -7 -4 -8 -3 -4 5 4 6 11 9 16 6 18
-11 150 212 150 253 0 17 52 38 115 46 446 61 776 166 1204 381 201 101 356
190 356 203 0 6 4 14 9 19 5 5 6 3 2 -4 -4 -7 -4 -13 1 -13 15 0 38 19 38 32
0 6 15 20 33 31 17 10 32 16 32 13 0 -3 -14 -13 -31 -21 -17 -9 -28 -19 -25
-22 8 -8 77 37 71 47 -3 5 0 12 6 16 8 5 9 3 4 -6 -5 -8 -3 -11 6 -8 8 3 14
10 14 15 0 6 4 15 9 20 5 5 6 2 1 -6 -5 -9 -3 -12 6 -9 8 3 14 10 14 15 0 6 4
15 9 20 5 5 6 3 2 -4 -12 -22 7 -15 62 22 29 20 50 40 47 45 -3 5 0 12 6 16 8
5 9 3 4 -6 -5 -8 -3 -11 6 -8 8 3 14 10 14 15 0 6 4 15 9 20 5 5 6 2 1 -6 -5
-9 -3 -12 6 -9 8 3 13 10 12 16 -2 6 12 21 30 32 l32 22 -30 -26 c-36 -31 -25
-34 16 -5 16 11 27 24 24 29 -3 5 0 12 6 16 8 4 9 3 5 -4 -4 -7 -3 -12 3 -12
10 0 26 19 26 32 0 3 4 10 9 15 5 5 6 2 1 -6 -5 -9 -3 -12 6 -9 8 3 14 10 14
16 0 6 7 17 15 24 12 11 12 11 1 -4 -7 -10 -9 -18 -3 -18 12 0 34 25 27 32 -3
3 11 17 32 32 l38 27 -35 -30 c-19 -17 -31 -31 -26 -31 14 0 76 52 71 60 -3 4
3 14 13 21 15 13 16 12 3 -3 -20 -26 2 -22 25 4 12 13 13 18 4 13 -13 -8 -13
-7 -1 8 15 18 26 23 16 7 -3 -5 -2 -10 3 -10 12 0 33 25 27 32 -3 3 3 11 12
19 16 13 17 12 4 -4 -20 -25 2 -21 25 5 12 13 13 18 4 13 -9 -5 -8 0 4 13 21
25 36 31 16 7 -20 -24 5 -17 26 7 12 13 13 18 4 13 -9 -5 -8 0 4 13 21 25 36
31 16 7 -7 -8 -8 -15 -3 -15 13 0 45 35 38 42 -3 3 5 13 17 24 l23 19 -19 -22
c-27 -32 -5 -29 25 4 13 14 17 23 9 18 -8 -5 -4 4 9 18 14 15 27 27 29 27 3 0
-3 -9 -13 -20 -10 -11 -14 -20 -8 -20 5 0 20 12 34 27 13 14 17 23 9 18 -8 -5
-4 4 9 18 14 15 27 27 29 27 3 0 -3 -9 -13 -20 -10 -11 -14 -20 -8 -20 5 0 22
14 39 32 16 18 20 26 9 18 -15 -11 -14 -8 4 13 25 28 43 38 21 12 -24 -29 7
-14 36 17 16 18 20 26 9 18 -11 -8 -7 0 9 18 17 18 32 32 34 32 3 0 -3 -9 -13
-20 -36 -40 2 -19 40 22 22 23 31 36 20 28 -11 -8 -4 3 14 23 19 20 37 37 40
37 2 0 -6 -11 -19 -25 -13 -14 -20 -25 -16 -25 17 0 195 173 189 184 -3 6 -3
8 2 4 9 -9 117 81 110 92 -2 4 5 16 18 26 18 16 19 16 8 2 -7 -10 -9 -18 -3
-18 11 0 29 20 32 35 1 6 4 12 7 15 4 3 3 -1 -1 -7 -4 -7 -3 -13 2 -13 17 0
21 12 10 29 -30 49 38 171 213 386 151 185 522 559 749 755 41 35 77 67 80 70
11 11 198 158 250 195 52 38 155 104 325 207 219 132 525 226 875 269 133 16
584 16 745 0 624 -63 1053 -158 2240 -495 242 -68 517 -145 612 -171 94 -25
205 -61 246 -80 271 -125 426 -67 473 178 l14 72 -5 -62 c-5 -69 -39 -154 -79
-196 -85 -90 -216 -88 -435 8 -42 18 -139 50 -216 70 -77 20 -327 90 -555 155
-523 149 -664 188 -925 255 -1009 258 -1718 328 -2315 226 -239 -41 -497 -134
-685 -249 -49 -30 -124 -75 -165 -100 -238 -144 -557 -419 -935 -803 -326
-332 -521 -594 -501 -674 13 -50 111 -27 313 71 73 35 166 76 205 91 40 14
138 55 218 90 583 259 1168 428 1740 504 161 22 530 37 595 25 l36 -7 -57
-107 c-31 -59 -77 -137 -100 -174 l-44 -68 -57 0 c-51 0 -69 -7 -192 -72 -74
-40 -140 -73 -145 -74 -6 0 -17 -2 -24 -2 -7 -1 -10 -6 -7 -12 3 -5 0 -7 -9
-4 -27 10 -288 -98 -272 -113 3 -3 1 -12 -5 -20 -15 -17 1 -16 25 2 14 11 16
15 5 15 -8 0 0 9 16 20 17 11 35 20 40 20 6 -1 -3 -8 -18 -16 -16 -9 -27 -18
-24 -21 3 -2 22 5 44 16 21 11 31 20 23 21 -13 0 -13 1 0 10 20 13 39 12 20
-1 -13 -9 -13 -10 0 -6 8 2 14 10 12 17 -2 8 3 10 13 7 8 -4 15 -2 15 3 0 6 3
9 8 8 4 0 24 7 46 16 85 38 37 6 -110 -73 -85 -46 -158 -81 -161 -77 -3 3 5
10 18 15 13 5 20 10 15 10 -5 1 -3 8 4 16 8 9 8 15 2 15 -16 0 -51 -50 -46
-65 7 -17 110 -35 200 -35 74 0 350 22 502 40 83 10 113 20 305 104 328 144
624 297 612 316 -3 5 0 12 6 16 8 4 9 3 5 -4 -10 -17 6 -15 32 4 12 8 20 19
17 24 -3 5 0 12 6 16 8 4 9 3 5 -4 -22 -37 68 31 140 105 40 41 107 69 142 60
11 -3 8 -5 -8 -7 -14 -1 90 -28 230 -60 140 -31 323 -73 405 -93 83 -19 197
-45 255 -57 58 -12 112 -26 120 -31 28 -16 -61 -2 -263 41 -187 40 -199 41
-222 26 -14 -9 -23 -21 -20 -25 2 -5 -3 -15 -13 -22 -15 -13 -16 -12 -3 4 22
28 -3 20 -30 -10 -18 -21 -19 -24 -4 -13 11 8 2 -5 -20 -28 -21 -23 -41 -42
-44 -42 -3 0 8 14 24 30 16 17 24 30 19 30 -12 0 -114 -102 -114 -115 0 -5 15
4 33 21 l32 29 -29 -32 c-16 -18 -34 -31 -39 -30 -18 3 -67 -95 -67 -136 0
-83 81 -113 279 -104 256 12 613 108 921 250 l55 25 202 -18 c220 -20 222 -21
352 -105 38 -25 71 -45 74 -45 2 0 4 7 4 15 0 14 -10 19 -29 16 -5 0 -8 4 -8
10 0 5 -4 8 -9 5 -5 -3 -19 3 -32 13 -47 36 -152 82 -202 88 -33 4 -45 9 -33
13 20 7 -1 16 -219 96 -214 79 -546 172 -745 208 -123 23 -396 56 -460 56 -30
-1 -101 -9 -158 -19 -79 -14 -116 -16 -155 -9 -74 14 -70 18 9 12 43 -4 103 0
158 10 115 21 178 20 366 -4 307 -39 533 -91 855 -198 442 -147 754 -297 852
-411 40 -47 43 -51 15 -31 -17 13 -32 27 -32 32 0 4 -5 7 -11 6 -6 -2 -13 5
-14 15 -2 11 -5 20 -7 21 -14 11 -127 76 -131 76 -11 0 0 -34 13 -38 8 -3 10
0 5 9 -5 8 -4 11 1 6 5 -5 9 -14 9 -20 0 -5 6 -12 14 -15 9 -3 11 0 6 9 -5 8
-4 11 1 6 5 -5 9 -14 9 -20 0 -5 6 -12 14 -15 9 -3 11 0 6 9 -5 8 -4 11 1 6 5
-5 9 -14 9 -20 0 -5 6 -12 14 -15 9 -3 11 0 6 8 -5 9 -4 11 4 6 6 -4 9 -11 6
-15 -11 -18 326 -218 346 -205 7 4 9 3 6 -4 -9 -13 110 -63 216 -91 170 -46
297 -21 400 80 71 69 72 54 -19 284 -34 85 -103 207 -114 200 -5 -3 -12 0 -16
6 -5 8 -3 9 6 4 8 -5 11 -3 8 6 -3 8 -10 14 -15 14 -6 0 -15 4 -20 9 -5 5 -2
6 6 1 9 -5 12 -3 9 6 -3 8 -10 14 -15 14 -6 0 -15 4 -20 9 -5 5 -3 6 5 2 6 -4
12 -3 12 2 0 12 -25 33 -32 27 -3 -3 -11 3 -19 12 -13 16 -12 17 4 4 9 -7 17
-9 17 -3 0 12 -25 34 -32 27 -3 -3 -11 3 -19 12 -13 16 -12 17 4 4 28 -22 20
3 -10 30 -21 18 -24 19 -13 4 8 -11 0 -7 -18 9 -18 17 -32 32 -32 34 0 3 9 -3
20 -13 48 -44 13 5 -64 89 l-84 92 10 84 c10 73 9 84 -6 95 -11 8 -16 27 -16
60 0 78 -39 293 -75 410 -36 116 -113 280 -132 280 -6 0 -15 4 -20 9 -5 5 -2
6 6 1 9 -5 12 -3 9 6 -3 8 -10 14 -16 14 -5 0 -14 4 -19 9 -5 5 -3 6 5 2 6 -4
12 -5 12 -3 0 2 -36 72 -79 156 -88 167 -226 385 -240 377 -5 -3 -15 2 -22 12
-13 15 -12 16 4 3 25 -20 21 2 -5 25 -13 12 -18 13 -13 4 5 -9 0 -8 -13 4 -25
21 -31 36 -7 16 8 -7 15 -8 15 -2 0 12 -25 34 -32 27 -3 -3 -11 3 -19 12 -13
16 -12 17 4 4 25 -20 21 2 -5 25 -14 12 -18 14 -13 4 4 -8 -4 -4 -18 9 -15 14
-27 27 -27 29 0 3 9 -3 20 -13 11 -10 20 -14 20 -8 0 5 -14 22 -32 39 -18 16
-26 21 -19 12 25 -33 5 -18 -39 29 -35 38 -37 41 -7 13 20 -18 37 -29 37 -24
0 16 -76 85 -84 77 -4 -5 -6 -1 -4 7 2 8 -3 14 -10 12 -8 -1 -11 1 -8 6 7 12
-68 84 -79 75 -4 -5 -5 -3 -2 3 4 6 -2 19 -12 28 -10 10 -21 14 -23 9 -3 -4
-4 -3 -2 4 1 6 -28 39 -66 72 -69 62 -99 79 -64 39 17 -21 16 -21 -9 1 -29 26
-35 37 -14 25 6 -4 3 2 -7 14 -23 26 -44 30 -25 5 11 -15 10 -14 -9 1 -24 21
-29 31 -9 20 6 -4 3 2 -7 14 -23 26 -44 30 -25 5 11 -15 10 -14 -9 1 -23 20
-30 32 -12 21 6 -3 10 -4 10 -1 0 6 -107 86 -115 86 -3 0 -3 -5 1 -12 4 -7 3
-8 -5 -4 -6 4 -9 11 -6 16 3 5 -15 23 -39 39 -50 35 -65 39 -45 14 13 -16 12
-17 -3 -4 -10 7 -16 17 -13 21 3 5 -10 18 -29 29 -37 24 -51 27 -40 9 4 -7 3
-8 -5 -4 -6 4 -9 11 -6 16 10 17 -262 165 -465 253 -257 112 -526 191 -812
241 -173 30 -295 43 -538 57 -341 20 -392 21 -546 5 -83 -9 -174 -16 -203 -16
-50 0 -52 1 -44 23 18 49 9 170 -20 257 -33 101 -108 255 -124 255 -6 0 -15 4
-20 9 -5 5 -3 6 5 2 21 -12 14 7 -23 62 -20 29 -40 50 -45 47 -5 -3 -12 0 -16
6 -4 8 -3 9 4 5 18 -11 14 10 -5 25 -15 12 -16 12 -8 -1 5 -9 0 -8 -13 4 -25
21 -31 36 -7 16 8 -7 15 -8 15 -3 0 13 -35 45 -42 38 -3 -3 -13 5 -24 17 -15
18 -16 20 -1 9 9 -7 17 -9 17 -3 0 13 -249 252 -263 252 -6 0 14 -23 44 -51
l54 -51 -57 48 c-32 26 -55 51 -52 55 3 5 -27 29 -66 55 -163 105 -343 162
-533 169 -44 1 -63 -1 -55 -7z m-52 -42 c-20 -53 5 -95 118 -201 246 -232 297
-287 333 -360 34 -69 34 -71 34 -205 0 -111 -4 -147 -22 -205 -24 -76 -83
-169 -123 -193 -20 -13 -18 -8 11 24 88 96 118 178 126 340 7 140 -5 191 -67
286 -48 73 -86 113 -230 238 -117 102 -168 159 -190 214 l-21 51 5 -40 5 -40
-11 32 c-9 26 -8 37 6 58 21 32 39 33 26 1z m298 13 c9 0 12 -3 7 -5 -6 -2 11
-28 38 -57 127 -136 345 -533 392 -711 71 -276 -5 -445 -220 -490 -137 -29
-150 -29 -185 0 -17 15 -29 28 -26 31 2 2 15 -7 29 -21 27 -27 34 -27 157 -4
165 30 247 116 257 269 9 130 -25 265 -108 430 -129 257 -236 425 -330 514
-33 32 -53 55 -44 51 9 -3 24 -6 33 -7z m77 -19 c13 -5 14 -9 5 -9 -8 0 -24 4
-35 9 -13 5 -14 9 -5 9 8 0 24 -4 35 -9z m55 -20 c8 -5 11 -10 5 -10 -5 0 -17
5 -25 10 -8 5 -10 10 -5 10 6 0 17 -5 25 -10z m50 -20 c8 -5 11 -10 5 -10 -5
0 -17 5 -25 10 -8 5 -10 10 -5 10 6 0 17 -5 25 -10z m45 -28 c-3 -3 -11 0 -18
7 -9 10 -8 11 6 5 10 -3 15 -9 12 -12z m75 -38 c0 -2 -13 2 -30 11 -16 9 -30
18 -30 21 0 2 14 -2 30 -11 17 -9 30 -18 30 -21z m-606 0 c3 -8 2 -12 -4 -9
-6 3 -10 10 -10 16 0 14 7 11 14 -7z m31 -54 c9 -16 13 -30 11 -30 -3 0 -12
14 -21 30 -9 17 -13 30 -11 30 3 0 12 -13 21 -30z m865 -175 c35 -36 62 -65
59 -65 -2 0 -34 29 -69 65 -35 36 -62 65 -59 65 2 0 34 -29 69 -65z m220 -276
c15 -28 5 -23 -15 7 -9 15 -12 23 -6 20 6 -4 16 -16 21 -27z m-751 -144 c0
-49 -3 -108 -7 -130 -4 -23 -7 20 -7 107 0 81 3 139 7 130 4 -9 7 -57 7 -107z
m811 45 c6 -11 8 -20 6 -20 -3 0 -10 9 -16 20 -6 11 -8 20 -6 20 3 0 10 -9 16
-20z m64 -140 c4 -14 -7 4 -24 39 -16 35 -30 66 -30 70 1 10 47 -83 54 -109z
m33 -112 c-3 -8 -6 -5 -6 6 -1 11 2 17 5 13 3 -3 4 -12 1 -19z m-930 -25 c-3
-10 -5 -4 -5 12 0 17 2 24 5 18 2 -7 2 -21 0 -30z m940 -25 c-3 -7 -5 -2 -5
12 0 14 2 19 5 13 2 -7 2 -19 0 -25z m-950 -45 c-3 -10 -5 -2 -5 17 0 19 2 27
5 18 2 -10 2 -26 0 -35z m960 -25 c-3 -8 -6 -5 -6 6 -1 11 2 17 5 13 3 -3 4
-12 1 -19z m-17 -95 c-11 -17 -11 -17 -6 0 3 10 6 24 7 30 0 9 2 9 5 0 3 -7 0
-20 -6 -30z m538 0 c-26 -2 -71 -2 -100 0 -29 2 -8 3 47 3 55 0 79 -1 53 -3z
m-180 -10 c-16 -2 -40 -2 -55 0 -16 2 -3 4 27 4 30 0 43 -2 28 -4z m290 0
c-10 -2 -28 -2 -40 0 -13 2 -5 4 17 4 22 1 32 -1 23 -4z m-438 -14 c-25 -4
-79 -7 -120 -6 l-75 1 85 6 c47 3 101 7 120 7 31 0 29 -1 -10 -8z m608 4 c-27
-2 -69 -2 -95 0 -27 2 -5 3 47 3 52 0 74 -1 48 -3z m170 -10 c-21 -2 -55 -2
-75 0 -21 2 -4 4 37 4 41 0 58 -2 38 -4z m221 -19 c8 -7 -73 -3 -119 6 -34 6
-25 7 35 3 44 -3 82 -7 84 -9z m-2214 -14 c-3 -5 -12 -10 -18 -10 -7 0 -6 4 3
10 19 12 23 12 15 0z m2268 3 c-7 -2 -21 -2 -30 0 -10 3 -4 5 12 5 17 0 24 -2
18 -5z m65 -10 c-10 -2 -26 -2 -35 0 -10 3 -2 5 17 5 19 0 27 -2 18 -5z m59
-9 c-3 -3 -12 -4 -19 -1 -8 3 -5 6 6 6 11 1 17 -2 13 -5z m-2467 -19 c-14 -8
-29 -14 -35 -14 -5 0 1 6 15 14 14 8 30 14 35 14 6 0 -1 -6 -15 -14z m2523 8
c-7 -2 -21 -2 -30 0 -10 3 -4 5 12 5 17 0 24 -2 18 -5z m44 -9 c-3 -3 -12 -4
-19 -1 -8 3 -5 6 6 6 11 1 17 -2 13 -5z m46 -11 c-7 -2 -19 -2 -25 0 -7 3 -2
5 12 5 14 0 19 -2 13 -5z m67 -13 c20 -6 21 -8 5 -8 -11 0 -29 3 -40 8 -25 11
1 11 35 0z m-2785 -20 c-3 -5 -12 -10 -18 -10 -7 0 -6 4 3 10 19 12 23 12 15
0z m2900 -11 c14 -6 9 -7 -15 -3 -19 4 -44 11 -55 15 -14 6 -9 7 15 3 19 -4
44 -11 55 -15z m-2990 -29 c-33 -16 -64 -29 -70 -29 -13 1 107 57 120 57 6 0
-17 -13 -50 -28z m3042 14 c-3 -3 -12 -4 -19 -1 -8 3 -5 6 6 6 11 1 17 -2 13
-5z m48 -14 c13 -6 15 -9 5 -9 -8 0 -22 4 -30 9 -18 12 -2 12 25 0z m60 -20
c13 -6 15 -9 5 -9 -8 0 -22 4 -30 9 -18 12 -2 12 25 0z m60 -20 c13 -6 15 -9
5 -9 -8 0 -22 4 -30 9 -18 12 -2 12 25 0z m-3355 -25 c-25 -13 -49 -24 -55
-24 -5 0 10 11 35 24 25 13 50 24 55 24 6 0 -10 -11 -35 -24z m3493 -26 c43
-17 76 -33 74 -35 -2 -2 -41 12 -88 31 -46 19 -79 34 -74 35 6 0 45 -14 88
-31z m-3563 -4 c0 -5 -69 -35 -79 -34 -5 0 68 38 77 39 1 0 2 -2 2 -5z m-95
-45 c-3 -5 -12 -10 -18 -10 -7 0 -6 4 3 10 19 12 23 12 15 0z m3805 -15 c14
-8 21 -14 15 -14 -5 0 -21 6 -35 14 -14 8 -20 14 -15 14 6 0 21 -6 35 -14z
m-3920 -40 c-36 -19 -69 -34 -75 -34 -5 0 19 15 55 34 36 19 70 34 75 34 6 0
-19 -15 -55 -34z m3975 7 c-3 -3 -11 0 -18 7 -9 10 -8 11 6 5 10 -3 15 -9 12
-12z m40 -20 c-3 -3 -11 0 -18 7 -9 10 -8 11 6 5 10 -3 15 -9 12 -12z m40 -20
c-3 -3 -11 0 -18 7 -9 10 -8 11 6 5 10 -3 15 -9 12 -12z m-4150 -12 c-3 -5
-12 -10 -18 -10 -7 0 -6 4 3 10 19 12 23 12 15 0z m4190 -8 c-3 -3 -11 0 -18
7 -9 10 -8 11 6 5 10 -3 15 -9 12 -12z m-4230 -12 c-3 -5 -12 -10 -18 -10 -7
0 -6 4 3 10 19 12 23 12 15 0z m4325 -35 c0 -3 -18 4 -40 15 -22 11 -40 23
-40 25 0 3 18 -4 40 -15 22 -11 40 -23 40 -25z m-4365 15 c-3 -5 -12 -10 -18
-10 -7 0 -6 4 3 10 19 12 23 12 15 0z m-40 -20 c-3 -5 -12 -10 -18 -10 -7 0
-6 4 3 10 19 12 23 12 15 0z m-40 -20 c-3 -5 -12 -10 -18 -10 -7 0 -6 4 3 10
19 12 23 12 15 0z m4560 -43 c16 -15 -48 20 -70 38 -11 9 -2 7 20 -6 22 -12
45 -26 50 -32z m-4600 23 c-3 -5 -12 -10 -18 -10 -7 0 -6 4 3 10 19 12 23 12
15 0z m-35 -14 c0 -7 -63 -37 -67 -32 -2 2 11 11 29 19 37 18 38 19 38 13z
m-80 -41 c0 -3 -27 -18 -60 -35 -33 -17 -60 -28 -60 -25 0 2 26 18 58 34 64
34 62 33 62 26z m-195 -104 c-15 -13 -151 -86 -142 -76 8 9 138 84 147 85 2 0
0 -4 -5 -9z m5205 -68 c0 -7 -58 36 -66 49 -4 7 9 -1 29 -16 20 -16 37 -30 37
-33z m-5395 -39 c-23 -18 -104 -60 -93 -49 9 10 101 64 108 64 3 0 -4 -7 -15
-15z m-155 -89 c0 -2 -10 -9 -22 -15 -22 -11 -22 -10 -4 4 21 17 26 19 26 11z
m5760 -40 c19 -19 32 -35 29 -35 -3 0 -20 16 -39 35 -19 19 -32 35 -29 35 3 0
20 -16 39 -35z m-5840 -10 c0 -2 -10 -9 -22 -15 -22 -11 -22 -10 -4 4 21 17
26 19 26 11z m-65 -41 c-26 -20 -55 -36 -55 -30 0 5 63 46 70 46 3 -1 -4 -8
-15 -16z m6055 -89 c13 -14 21 -25 18 -25 -2 0 -15 11 -28 25 -13 14 -21 25
-18 25 2 0 15 -11 28 -25z m123 -312 c64 -32 7 -86 -93 -87 -89 0 -150 47
-107 83 37 30 143 33 200 4z m255 -150 c65 -98 80 -123 65 -108 -16 16 -134
195 -129 195 3 0 32 -39 64 -87z m-7288 -117 c0 -2 -7 -7 -16 -10 -8 -3 -12
-2 -9 4 6 10 25 14 25 6z m7390 -46 c6 -11 8 -20 6 -20 -3 0 -10 9 -16 20 -6
11 -8 20 -6 20 3 0 10 -9 16 -20z m-7510 -75 c-24 -25 -46 -45 -49 -45 -3 0
15 20 39 45 24 25 46 45 49 45 3 0 -15 -20 -39 -45z m7560 -19 c0 -12 -5 -7
-19 24 -11 24 -11 24 3 6 9 -11 16 -24 16 -30z m34 -72 c3 -8 2 -12 -4 -9 -6
3 -10 10 -10 16 0 14 7 11 14 -7z m37 -69 c7 -13 3 -12 -10 5 -11 14 -21 30
-21 35 0 11 14 -7 31 -40z m79 -125 c6 -11 8 -20 6 -20 -3 0 -10 9 -16 20 -6
11 -8 20 -6 20 3 0 10 -9 16 -20z m24 -46 c3 -8 2 -12 -4 -9 -6 3 -10 10 -10
16 0 14 7 11 14 -7z m26 -59 c0 -5 -5 -3 -10 5 -5 8 -10 20 -10 25 0 6 5 3 10
-5 5 -8 10 -19 10 -25z m-8106 -55 c-15 -22 -29 -40 -31 -40 -5 0 3 15 29 53
30 43 31 32 2 -13z m8126 5 c0 -5 -5 -3 -10 5 -5 8 -10 20 -10 25 0 6 5 3 10
-5 5 -8 10 -19 10 -25z m-8240 -185 c-6 -11 -13 -20 -16 -20 -2 0 0 9 6 20 6
11 13 20 16 20 2 0 0 -9 -6 -20z m-60 -100 c-6 -11 -13 -20 -16 -20 -2 0 0 9
6 20 6 11 13 20 16 20 2 0 0 -9 -6 -20z m-29 -53 c-10 -9 -11 -8 -5 6 3 10 9
15 12 12 3 -3 0 -11 -7 -18z m-40 -70 c-10 -9 -11 -8 -5 6 3 10 9 15 12 12 3
-3 0 -11 -7 -18z m-26 -47 c-9 -16 -18 -30 -21 -30 -2 0 2 14 11 30 9 17 18
30 21 30 2 0 -2 -13 -11 -30z m4860 -62 c-14 -24 -44 -78 -68 -120 -36 -67
-46 -78 -67 -77 -23 2 -23 2 -3 6 15 3 34 27 61 76 22 40 50 89 62 111 l23 38
-104 -6 c-310 -21 -655 -76 -954 -152 -386 -98 -967 -300 -1316 -457 -54 -24
-183 -121 -224 -167 l-20 -23 23 12 c13 7 26 11 28 8 3 -2 -24 -17 -58 -32
-87 -37 -98 -41 -60 -16 18 12 79 60 135 108 116 98 154 118 478 246 335 133
761 271 1069 345 328 80 692 133 958 140 l63 2 -26 -42z m-4894 -1 c-10 -9
-11 -8 -5 6 3 10 9 15 12 12 3 -3 0 -11 -7 -18z m8556 -79 c-2 -13 -4 -5 -4
17 -1 22 1 32 4 23 2 -10 2 -28 0 -40z m-8597 2 c-11 -22 -23 -40 -25 -40 -3
0 4 18 15 40 11 22 23 40 25 40 3 0 -4 -18 -15 -40z m6915 -31 c197 -66 826
-155 1175 -166 212 -6 345 6 431 41 l57 23 69 -71 68 -71 -70 66 -70 66 -35
-18 c-72 -36 -147 -44 -390 -44 -129 1 -284 7 -345 14 -428 49 -757 105 -917
157 -50 16 -88 7 -88 -21 0 -48 170 -114 600 -231 258 -71 318 -106 591 -344
300 -261 384 -312 562 -341 100 -16 497 40 519 73 6 10 8 8 8 -4 0 -10 -2 -18
-3 -18 -2 0 -46 -9 -98 -20 -115 -25 -297 -50 -359 -50 -65 0 -190 34 -262 70
-94 48 -171 104 -301 219 -367 323 -371 326 -770 436 -200 55 -262 75 -353
111 -136 54 -173 93 -122 128 28 20 30 20 103 -5z m-6980 -89 c-9 -16 -18 -30
-21 -30 -2 0 2 14 11 30 9 17 18 30 21 30 2 0 -2 -13 -11 -30z m4674 6 c-2 -2
-74 -5 -159 -8 -85 -2 -135 -1 -110 2 48 7 276 13 269 6z m139 -3 c-16 -2 -40
-2 -55 0 -16 2 -3 4 27 4 30 0 43 -2 28 -4z m-518 -24 c-25 -4 -56 -7 -70 -7
-38 1 37 15 80 15 32 0 31 0 -10 -8z m-121 -13 c-2 -2 -29 -6 -59 -9 -36 -4
-46 -3 -30 3 25 8 97 13 89 6z m-4208 -29 c-10 -9 -11 -8 -5 6 3 10 9 15 12
12 3 -3 0 -11 -7 -18z m4054 3 c-16 -4 -39 -8 -50 -8 -16 0 -15 2 5 8 14 4 36
8 50 8 22 0 22 -1 -5 -8z m-115 -20 c-14 -4 -34 -8 -45 -8 -16 0 -15 2 5 8 14
4 34 8 45 8 16 0 15 -2 -5 -8z m-3965 -30 c-9 -16 -18 -30 -21 -30 -2 0 2 14
11 30 9 17 18 30 21 30 2 0 -2 -13 -11 -30z m3870 10 c-11 -5 -29 -8 -40 -8
-16 0 -15 2 5 8 34 11 60 11 35 0z m-78 -16 c-3 -3 -12 -4 -19 -1 -8 3 -5 6 6
6 11 1 17 -2 13 -5z m2378 -4 c25 -11 -1 -11 -35 0 -20 6 -21 8 -5 8 11 0 29
-3 40 -8z m-2418 -6 c-3 -3 -12 -4 -19 -1 -8 3 -5 6 6 6 11 1 17 -2 13 -5z
m-40 -10 c-3 -3 -12 -4 -19 -1 -8 3 -5 6 6 6 11 1 17 -2 13 -5z m2553 -4 c20
-6 21 -8 5 -8 -11 0 -31 4 -45 8 -20 6 -21 8 -5 8 11 0 31 -4 45 -8z m-511
-25 c-19 -13 -45 -34 -58 -47 -13 -13 -20 -17 -16 -9 12 21 8 19 -275 -138
-140 -78 -254 -146 -252 -152 2 -9 -11 -13 -35 -10 -7 1 -13 -3 -13 -9 0 -6
-4 -8 -10 -5 -5 3 -10 1 -10 -5 0 -6 -4 -8 -10 -5 -5 3 -10 1 -10 -5 0 -6 -4
-8 -10 -5 -5 3 -10 1 -10 -4 0 -6 -3 -10 -7 -9 -5 1 -33 -10 -63 -24 -134 -63
-223 -98 -243 -97 -15 0 -9 5 18 14 95 31 364 167 680 343 187 105 344 191
349 191 6 1 -6 -10 -25 -24z m-5788 -8 c-10 -9 -11 -8 -5 6 3 10 9 15 12 12 3
-3 0 -11 -7 -18z m3654 13 c-11 -5 -27 -9 -35 -9 -9 0 -8 4 5 9 11 5 27 9 35
9 9 0 8 -4 -5 -9z m2730 0 c13 -5 14 -9 5 -9 -8 0 -24 4 -35 9 -13 5 -14 9 -5
9 8 0 24 -4 35 -9z m-2810 -20 c-27 -12 -43 -12 -25 0 8 5 22 9 30 9 10 0 8
-3 -5 -9z m2890 0 c13 -5 14 -9 5 -9 -8 0 -24 4 -35 9 -13 5 -14 9 -5 9 8 0
24 -4 35 -9z m-6490 -40 c-9 -16 -18 -30 -21 -30 -2 0 2 14 11 30 9 17 18 30
21 30 2 0 -2 -13 -11 -30z m3530 20 c-11 -5 -27 -9 -35 -9 -9 0 -8 4 5 9 11 5
27 9 35 9 9 0 8 -4 -5 -9z m3050 0 c25 -11 -1 -11 -35 0 -20 6 -21 8 -5 8 11
0 29 -3 40 -8z m-3120 -20 c-27 -12 -43 -12 -25 0 8 5 22 9 30 9 10 0 8 -3 -5
-9z m3200 0 c25 -11 -1 -11 -35 0 -20 6 -21 8 -5 8 11 0 29 -3 40 -8z m-3265
-20 c-8 -5 -22 -9 -30 -9 -10 0 -8 3 5 9 27 12 43 12 25 0z m3327 4 c-3 -3
-12 -4 -19 -1 -8 3 -5 6 6 6 11 1 17 -2 13 -5z m40 -10 c-3 -3 -12 -4 -19 -1
-8 3 -5 6 6 6 11 1 17 -2 13 -5z m-3432 -14 c-27 -12 -43 -12 -25 0 8 5 22 9
30 9 10 0 8 -3 -5 -9z m3255 -1 c21 -7 20 -8 -9 -4 -19 3 -41 0 -50 -7 -14
-12 -14 -11 -2 5 15 19 23 20 61 6z m245 1 c13 -5 14 -9 5 -9 -8 0 -24 4 -35
9 -13 5 -14 9 -5 9 8 0 24 -4 35 -9z m-6855 -7 c0 -5 -10 -19 -21 -33 l-21
-25 18 33 c18 32 24 38 24 25z m3295 -13 c-27 -12 -43 -12 -25 0 8 5 22 9 30
9 10 0 8 -3 -5 -9z m3415 0 c20 -6 21 -8 5 -8 -11 0 -31 4 -45 8 -20 6 -21 8
-5 8 11 0 31 -4 45 -8z m-1050 -15 c0 -2 -10 -9 -22 -15 -22 -11 -22 -10 -4 4
21 17 26 19 26 11z m1150 -5 c20 -6 21 -8 5 -8 -11 0 -31 4 -45 8 -20 6 -21 8
-5 8 11 0 31 -4 45 -8z m67 -16 c-3 -3 -12 -4 -19 -1 -8 3 -5 6 6 6 11 1 17
-2 13 -5z m-1267 -9 c0 -2 -10 -9 -22 -15 -22 -11 -22 -10 -4 4 21 17 26 19
26 11z m1307 -1 c-3 -3 -12 -4 -19 -1 -8 3 -5 6 6 6 11 1 17 -2 13 -5z m275
-15 c57 -11 157 -25 222 -30 122 -10 136 -13 136 -30 0 -6 -7 -6 -17 0 -10 5
-67 14 -128 20 -105 10 -313 46 -324 56 -7 7 0 7 111 -16z m-4072 1 c-8 -5
-19 -10 -25 -10 -5 0 -3 5 5 10 8 5 20 10 25 10 6 0 3 -5 -5 -10z m-3180 -30
c-6 -11 -13 -20 -16 -20 -2 0 0 9 6 20 6 11 13 20 16 20 2 0 0 -9 -6 -20z
m3125 10 c-27 -12 -43 -12 -25 0 8 5 22 9 30 9 10 0 8 -3 -5 -9z m4042 4 c-3
-3 -12 -4 -19 -1 -8 3 -5 6 6 6 11 1 17 -2 13 -5z m225 -40 c126 -23 145 -29
130 -40 -9 -7 -21 -13 -27 -14 -5 0 -4 4 4 9 18 11 8 14 -139 41 -63 11 -128
25 -145 30 l-30 10 30 -5 c17 -2 96 -16 177 -31z m-4322 16 c-8 -5 -19 -10
-25 -10 -5 0 -3 5 5 10 8 5 20 10 25 10 6 0 3 -5 -5 -10z m2510 5 c0 -6 -217
-115 -227 -114 -6 0 214 116 225 118 1 1 2 -1 2 -4z m-2560 -25 c-8 -5 -19
-10 -25 -10 -5 0 -3 5 5 10 8 5 20 10 25 10 6 0 3 -5 -5 -10z m-50 -20 c-8 -5
-19 -10 -25 -10 -5 0 -3 5 5 10 8 5 20 10 25 10 6 0 3 -5 -5 -10z m4743 3
c-13 -2 -33 -2 -45 0 -13 2 -3 4 22 4 25 0 35 -2 23 -4z m-7753 -23 c-6 -11
-13 -20 -16 -20 -2 0 0 9 6 20 6 11 13 20 16 20 2 0 0 -9 -6 -20z m7858 13
c-16 -2 -40 -2 -55 0 -16 2 -3 4 27 4 30 0 43 -2 28 -4z m1387 -23 c9 -16 13
-30 11 -30 -3 0 -12 14 -21 30 -9 17 -13 30 -11 30 3 0 12 -13 21 -30z m-6285
10 c-8 -5 -19 -10 -25 -10 -5 0 -3 5 5 10 8 5 20 10 25 10 6 0 3 -5 -5 -10z
m-80 -34 c0 -2 -9 -6 -20 -9 -11 -3 -18 -1 -14 4 5 9 34 13 34 5z m3538 -33
c-27 -47 -28 -49 -28 -37 0 11 38 74 45 74 2 0 -5 -17 -17 -37z m1052 27 c-8
-5 -19 -10 -25 -10 -5 0 -3 5 5 10 8 5 20 10 25 10 6 0 3 -5 -5 -10z m-4650
-20 c-8 -5 -19 -10 -25 -10 -5 0 -3 5 5 10 8 5 20 10 25 10 6 0 3 -5 -5 -10z
m4600 0 c-8 -5 -19 -10 -25 -10 -5 0 -3 5 5 10 8 5 20 10 25 10 6 0 3 -5 -5
-10z m1865 -20 c20 -39 38 -86 30 -78 -10 10 -55 108 -50 108 3 0 11 -13 20
-30z m-6505 6 c0 -2 -7 -7 -16 -10 -8 -3 -12 -2 -9 4 6 10 25 14 25 6z m-2840
-26 c-6 -11 -13 -20 -16 -20 -2 0 0 9 6 20 6 11 13 20 16 20 2 0 0 -9 -6 -20z
m2790 0 c-8 -5 -19 -10 -25 -10 -5 0 -3 5 5 10 8 5 20 10 25 10 6 0 3 -5 -5
-10z m4595 0 c-27 -12 -43 -12 -25 0 8 5 22 9 30 9 10 0 8 -3 -5 -9z m-904
-112 c23 -18 23 -19 2 -8 -29 13 -43 41 -42 77 1 23 3 21 9 -11 4 -22 18 -47
31 -58z m769 72 c-8 -5 -22 -9 -30 -9 -10 0 -8 3 5 9 27 12 43 12 25 0z m-53
-16 c-3 -3 -12 -4 -19 -1 -8 3 -5 6 6 6 11 1 17 -2 13 -5z m-7246 -21 c-5 -10
-17 -27 -26 -38 -16 -19 -17 -19 -3 5 26 46 29 50 34 50 3 0 0 -8 -5 -17z
m7206 11 c-3 -3 -12 -4 -19 -1 -8 3 -5 6 6 6 11 1 17 -2 13 -5z m-40 -10 c-3
-3 -12 -4 -19 -1 -8 3 -5 6 6 6 11 1 17 -2 13 -5z m2283 -29 c0 -5 -5 -3 -10
5 -5 8 -10 20 -10 25 0 6 5 3 10 -5 5 -8 10 -19 10 -25z m-2323 19 c-3 -3 -12
-4 -19 -1 -8 3 -5 6 6 6 11 1 17 -2 13 -5z m-40 -10 c-3 -3 -12 -4 -19 -1 -8
3 -5 6 6 6 11 1 17 -2 13 -5z m-44 -11 c-7 -2 -19 -2 -25 0 -7 3 -2 5 12 5 14
0 19 -2 13 -5z m-73 -13 c-14 -4 -36 -8 -50 -8 -22 0 -22 1 5 8 17 4 39 8 50
8 16 0 15 -2 -5 -8z m-175 -24 c11 -2 -27 -4 -85 -4 -58 0 -113 3 -123 7 -17
6 164 4 208 -3z m73 7 c-10 -2 -26 -2 -35 0 -10 3 -2 5 17 5 19 0 27 -2 18 -5z
m2601 -33 c0 -10 -3 -8 -9 5 -12 27 -12 43 0 25 5 -8 9 -22 9 -30z m-4539 9
c-235 -25 -557 -43 -544 -30 7 7 447 38 544 38 l75 0 -75 -8z m-2484 -11 c-11
-6 -42 -10 -68 -9 -39 1 -60 -5 -103 -31 -38 -22 -51 -35 -42 -41 8 -6 6 -7
-5 -3 -10 3 -20 1 -23 -4 -4 -6 -14 -10 -23 -10 -9 0 17 23 59 50 67 43 83 49
140 53 35 2 69 4 74 5 6 1 1 -4 -9 -10z m7038 -34 c3 -8 2 -12 -4 -9 -6 3 -10
10 -10 16 0 14 7 11 14 -7z m-7144 -14 c-8 -5 -19 -10 -25 -10 -5 0 -3 5 5 10
8 5 20 10 25 10 6 0 3 -5 -5 -10z m-50 -20 c-8 -5 -22 -9 -30 -9 -10 0 -8 3 5
9 27 12 43 12 25 0z m6690 -132 c121 -29 330 -29 415 0 55 19 58 19 36 2 -14
-10 -31 -16 -38 -13 -8 3 -13 0 -11 -7 2 -7 -4 -15 -12 -17 -13 -4 -13 -3 0 7
12 9 9 10 -15 4 -47 -11 -347 -11 -359 1 -6 5 -15 10 -21 10 -16 0 -115 36
-115 42 0 3 8 2 18 -2 9 -3 55 -16 102 -27z m-6960 19 c0 -2 -17 -19 -37 -38
l-38 -34 34 38 c33 34 41 42 41 34z m7119 -73 c9 -8 -45 -2 -64 6 -14 7 -8 8
20 3 22 -3 42 -7 44 -9z m178 0 c-3 -3 -12 -4 -19 -1 -8 3 -5 6 6 6 11 1 17
-2 13 -5z m-69 -11 c-15 -2 -42 -2 -60 0 -18 2 -6 4 27 4 33 0 48 -2 33 -4z
m-7328 -6 c0 -1 -28 -29 -62 -62 l-63 -60 60 63 c55 58 65 67 65 59z m-2560
-490 c0 -1 -24 -25 -52 -52 l-53 -50 50 53 c46 48 55 57 55 49z m-120 -130 c0
-1 -28 -29 -62 -62 l-63 -60 60 63 c55 58 65 67 65 59z m-330 -330 c0 -1 -30
-32 -67 -67 l-68 -65 65 68 c60 62 70 72 70 64z m-1807 -64 c-13 -2 -33 -2
-45 0 -13 2 -3 4 22 4 25 0 35 -2 23 -4z m-84 -7 c-2 -2 -31 -6 -64 -9 -37 -3
-51 -2 -35 3 25 8 107 13 99 6z m199 -3 c-16 -2 -40 -2 -55 0 -16 2 -3 4 27 4
30 0 43 -2 28 -4z m107 -12 c34 -7 35 -9 10 -9 -16 0 -43 4 -60 8 -42 11 -1
11 50 1z m-436 -5 c-2 -2 -22 -6 -44 -9 -28 -5 -34 -4 -20 3 19 8 73 14 64 6z
m586 -25 c44 -11 71 -19 60 -20 -24 0 -177 37 -155 38 8 0 51 -8 95 -18z
m-695 -2 l-25 -10 25 -14 c14 -8 20 -14 14 -15 -5 0 -19 7 -30 15 -16 13 -17
16 -4 25 8 5 22 9 30 9 8 0 4 -5 -10 -10z m807 -25 c-3 -3 -12 -4 -19 -1 -8 3
-5 6 6 6 11 1 17 -2 13 -5z m114 -21 c41 -9 70 -18 64 -19 -5 -2 -46 5 -90 15
-44 11 -73 20 -64 20 9 1 50 -6 90 -16z m2799 12 c0 -2 -10 -9 -22 -15 -22
-11 -22 -10 -4 4 21 17 26 19 26 11z m-3619 -30 c19 -8 29 -14 23 -15 -7 0
-27 7 -45 15 -19 8 -29 14 -23 15 7 0 27 -7 45 -15z m942 -12 c-7 -2 -21 -2
-30 0 -10 3 -4 5 12 5 17 0 24 -2 18 -5z m863 -8 c-25 -19 -121 -55 -144 -54
-9 0 8 8 38 18 30 10 69 25 85 34 37 20 46 21 21 2z m1744 10 c0 -2 -13 -11
-30 -20 -38 -19 -40 -11 -2 9 31 17 32 18 32 11z m-3450 -27 c10 -6 7 -7 -10
-2 -14 3 -32 11 -40 16 -10 6 -7 7 10 2 14 -3 32 -11 40 -16z m887 16 c-3 -3
-12 -4 -19 -1 -8 3 -5 6 6 6 11 1 17 -2 13 -5z m46 -11 c-7 -2 -19 -2 -25 0
-7 3 -2 5 12 5 14 0 19 -2 13 -5z m50 -10 c-7 -2 -19 -2 -25 0 -7 3 -2 5 12 5
14 0 19 -2 13 -5z m-923 -18 c14 -8 21 -14 15 -14 -5 0 -21 6 -35 14 -14 8
-20 14 -15 14 6 0 21 -6 35 -14z m1025 5 c42 -11 1 -11 -50 -1 -34 7 -35 9
-10 9 17 0 44 -4 60 -8z m2295 5 c0 -2 -13 -11 -30 -20 -38 -19 -40 -11 -2 9
31 17 32 18 32 11z m-2202 -22 c-10 -2 -28 -2 -40 0 -13 2 -5 4 17 4 22 1 32
-1 23 -4z m80 -10 c-10 -2 -28 -2 -40 0 -13 2 -5 4 17 4 22 1 32 -1 23 -4z
m270 0 c-10 -2 -26 -2 -35 0 -10 3 -2 5 17 5 19 0 27 -2 18 -5z m-115 -10
c-23 -2 -64 -2 -90 0 -26 2 -7 3 42 3 50 0 71 -1 48 -3z m1857 -18 c0 -6 -197
-105 -207 -104 -6 0 194 106 205 108 1 1 2 -1 2 -4z m-3060 -31 c0 -2 -9 0
-20 6 -11 6 -20 13 -20 16 0 2 9 0 20 -6 11 -6 20 -13 20 -16z m2735 -129
c-27 -13 -54 -24 -60 -24 -5 1 13 11 40 24 28 13 55 24 60 24 6 -1 -12 -11
-40 -24z m-2544 -12 c13 -16 12 -17 -3 -4 -10 7 -18 15 -18 17 0 8 8 3 21 -13z
m2420 -38 c-18 -8 -36 -15 -40 -15 -13 1 45 29 59 29 8 0 0 -6 -19 -14z m-72
-29 c-8 -8 -162 -57 -166 -53 -2 3 29 16 69 29 68 24 107 33 97 24z m-194 -66
c-27 -12 -43 -12 -25 0 8 5 22 9 30 9 10 0 8 -3 -5 -9z m-48 -16 c-3 -3 -12
-4 -19 -1 -8 3 -5 6 6 6 11 1 17 -2 13 -5z m-52 -14 c-11 -5 -29 -8 -40 -8
-16 0 -15 2 5 8 34 11 60 11 35 0z m-80 -20 c-11 -5 -29 -8 -40 -8 -16 0 -15
2 5 8 34 11 60 11 35 0z m-1928 -62 c-2 -13 -4 -5 -4 17 -1 22 1 32 4 23 2
-10 2 -28 0 -40z m1860 46 c-3 -3 -12 -4 -19 -1 -8 3 -5 6 6 6 11 1 17 -2 13
-5z m-62 -14 c-16 -4 -39 -8 -50 -8 -16 0 -15 2 5 8 14 4 36 8 50 8 22 0 22
-1 -5 -8z m-76 -14 c-2 -2 -31 -6 -64 -9 -39 -4 -50 -3 -30 2 31 9 102 14 94
7z m-130 -20 c-2 -2 -31 -6 -64 -9 -39 -4 -50 -3 -30 2 31 9 102 14 94 7z
m-129 -20 c0 -2 -9 -6 -20 -9 -11 -3 -18 -1 -14 4 5 9 34 13 34 5z m-1329
-102 c9 -11 2 -9 -18 6 -18 13 -33 25 -33 27 0 8 38 -17 51 -33z m1234 -33
c-21 -43 -29 -39 -8 4 9 19 18 33 21 31 2 -2 -4 -18 -13 -35z m-1194 2 c13
-16 12 -17 -3 -4 -10 7 -18 15 -18 17 0 8 8 3 21 -13z m1152 -73 c-9 -17 -28
-43 -41 -58 -13 -15 -6 -1 14 31 38 59 58 79 27 27z m-1096 -152 c-2 -24 -4
-7 -4 37 0 44 2 63 4 43 2 -21 2 -57 0 -80z m983 -8 c-17 -22 -34 -40 -37 -40
-2 0 10 18 27 40 17 22 34 40 37 40 2 0 -10 -18 -27 -40z m-993 -107 c-3 -10
-5 -4 -5 12 0 17 2 24 5 18 2 -7 2 -21 0 -30z m-10 -55 c-3 -7 -5 -2 -5 12 0
14 2 19 5 13 2 -7 2 -19 0 -25z m-12 -68 c-4 -17 -9 -30 -11 -27 -2 2 -1 18 2
36 4 17 9 30 11 27 3 -2 2 -19 -2 -36z m-21 -89 c-4 -17 -9 -30 -11 -27 -3 2
-2 19 2 36 4 17 9 30 11 27 2 -2 1 -18 -2 -36z m-19 -81 c-9 -41 -17 -33 -9 9
4 17 9 30 11 27 3 -2 2 -19 -2 -36z m550 -170 c-82 -82 -152 -150 -155 -150
-2 0 63 68 145 150 82 83 152 150 155 150 2 0 -63 -67 -145 -150z m-568 108
c-3 -8 -6 -5 -6 6 -1 11 2 17 5 13 3 -3 4 -12 1 -19z m-10 -40 c-3 -8 -6 -5
-6 6 -1 11 2 17 5 13 3 -3 4 -12 1 -19z m-12 -58 c-9 -41 -17 -33 -9 9 4 17 9
30 11 27 3 -2 2 -19 -2 -36z m-18 -72 c-3 -8 -6 -5 -6 6 -1 11 2 17 5 13 3 -3
4 -12 1 -19z m-10 -40 c-3 -8 -6 -5 -6 6 -1 11 2 17 5 13 3 -3 4 -12 1 -19z
m-13 -77 c-4 -23 -9 -40 -11 -37 -3 3 -2 23 2 46 4 23 9 39 11 37 3 -2 2 -23
-2 -46z m-17 -138 c-3 -10 -5 -2 -5 17 0 19 2 27 5 18 2 -10 2 -26 0 -35z m22
-88 c0 -5 -4 -3 -9 5 -5 8 -9 22 -9 30 0 16 17 -16 18 -35z m161 10 c0 -8 -82
-45 -100 -44 -8 0 10 10 40 23 30 13 56 24 58 25 1 0 2 -1 2 -4z m-135 -43
c-3 -3 -11 0 -18 7 -9 10 -8 11 6 5 10 -3 15 -9 12 -12z"/>
<path d="M11410 5613 c-42 -6 -80 -25 -80 -39 0 -54 200 -61 217 -7 9 26 -75
54 -137 46z"/>
<path d="M12288 3123 c7 -3 16 -2 19 1 4 3 -2 6 -13 5 -11 0 -14 -3 -6 -6z"/>
<path d="M8377 3999 c-32 -16 -55 -34 -52 -39 3 -4 -9 -18 -27 -30 l-33 -22
30 26 c32 27 24 36 -10 10 -36 -26 -175 -168 -175 -177 0 -5 8 -3 18 4 9 7 6
1 -7 -14 -27 -30 -41 -37 -20 -9 7 9 1 6 -14 -7 -30 -27 -38 -52 -9 -30 14 12
14 10 -2 -8 -10 -12 -21 -21 -25 -20 -4 1 -38 -29 -75 -67 -62 -63 -73 -81
-18 -32 13 12 24 19 25 16 1 -2 51 22 111 54 96 51 114 57 156 54 l48 -3 35
55 c37 58 147 257 147 265 0 14 -51 1 -103 -26z m52 7 c-10 -9 -89 -46 -89
-41 0 6 72 44 84 45 5 0 7 -2 5 -4z m-169 -99 c0 -1 -26 -27 -57 -57 l-58 -55
55 58 c50 53 60 62 60 54z m-220 -250 c0 -2 -12 -14 -27 -28 l-28 -24 24 28
c23 25 31 32 31 24z"/>
</g>
</svg>
